<mxfile host="app.diagrams.net" modified="2023-12-23T20:01:16.118Z" agent="Mozilla/5.0 (Windows NT 10.0; Win64; x64) AppleWebKit/537.36 (KHTML, like Gecko) Chrome/120.0.0.0 Safari/537.36 Edg/120.0.0.0" etag="gOVFnEH92Xpd9zMJZmPH" version="22.1.11" type="device">
  <diagram name="Página-1" id="ywy11iD6sc1prs-4dH7r">
    <mxGraphModel dx="1386" dy="1151" grid="1" gridSize="10" guides="1" tooltips="1" connect="1" arrows="1" fold="1" page="0" pageScale="1" pageWidth="827" pageHeight="1169" math="0" shadow="0">
      <root>
        <mxCell id="0" />
        <mxCell id="1" parent="0" />
        <mxCell id="iupRu0jb0FwVBz4ll3Uf-1" value="DP&lt;br&gt;" style="rounded=0;whiteSpace=wrap;html=1;labelBackgroundColor=none;fillColor=#FAE5C7;strokeColor=#0F8B8D;fontColor=#143642;" vertex="1" parent="1">
          <mxGeometry x="60" y="90" width="190" height="40" as="geometry" />
        </mxCell>
        <mxCell id="iupRu0jb0FwVBz4ll3Uf-2" value="Nome" style="ellipse;whiteSpace=wrap;html=1;labelBackgroundColor=none;fillColor=#FAE5C7;strokeColor=#0F8B8D;fontColor=#143642;" vertex="1" parent="1">
          <mxGeometry y="160" width="100" height="40" as="geometry" />
        </mxCell>
        <mxCell id="iupRu0jb0FwVBz4ll3Uf-3" value="&lt;u&gt;Cod DP&lt;/u&gt;" style="ellipse;whiteSpace=wrap;html=1;labelBackgroundColor=none;fillColor=#FAE5C7;strokeColor=#0F8B8D;fontColor=#143642;" vertex="1" parent="1">
          <mxGeometry x="120" y="160" width="100" height="40" as="geometry" />
        </mxCell>
        <mxCell id="iupRu0jb0FwVBz4ll3Uf-4" value="Endereço" style="ellipse;whiteSpace=wrap;html=1;labelBackgroundColor=none;fillColor=#FAE5C7;strokeColor=#0F8B8D;fontColor=#143642;" vertex="1" parent="1">
          <mxGeometry x="240" y="160" width="100" height="40" as="geometry" />
        </mxCell>
        <mxCell id="iupRu0jb0FwVBz4ll3Uf-5" value="" style="endArrow=none;html=1;rounded=0;entryX=0.25;entryY=1;entryDx=0;entryDy=0;exitX=0.77;exitY=0;exitDx=0;exitDy=0;exitPerimeter=0;labelBackgroundColor=none;strokeColor=#A8201A;fontColor=default;" edge="1" parent="1" source="iupRu0jb0FwVBz4ll3Uf-2" target="iupRu0jb0FwVBz4ll3Uf-1">
          <mxGeometry width="50" height="50" relative="1" as="geometry">
            <mxPoint x="100" y="190" as="sourcePoint" />
            <mxPoint x="150" y="140" as="targetPoint" />
          </mxGeometry>
        </mxCell>
        <mxCell id="iupRu0jb0FwVBz4ll3Uf-6" value="" style="endArrow=none;html=1;rounded=0;exitX=0.5;exitY=0;exitDx=0;exitDy=0;labelBackgroundColor=none;strokeColor=#A8201A;fontColor=default;" edge="1" parent="1" source="iupRu0jb0FwVBz4ll3Uf-3" target="iupRu0jb0FwVBz4ll3Uf-1">
          <mxGeometry width="50" height="50" relative="1" as="geometry">
            <mxPoint x="210" y="190" as="sourcePoint" />
            <mxPoint x="218" y="130" as="targetPoint" />
          </mxGeometry>
        </mxCell>
        <mxCell id="iupRu0jb0FwVBz4ll3Uf-7" value="" style="endArrow=none;html=1;rounded=0;exitX=0;exitY=0;exitDx=0;exitDy=0;labelBackgroundColor=none;strokeColor=#A8201A;fontColor=default;" edge="1" parent="1" source="iupRu0jb0FwVBz4ll3Uf-4" target="iupRu0jb0FwVBz4ll3Uf-1">
          <mxGeometry width="50" height="50" relative="1" as="geometry">
            <mxPoint x="320" y="200" as="sourcePoint" />
            <mxPoint x="328" y="140" as="targetPoint" />
          </mxGeometry>
        </mxCell>
        <mxCell id="iupRu0jb0FwVBz4ll3Uf-8" value="Responsável DP" style="rounded=0;whiteSpace=wrap;html=1;labelBackgroundColor=none;fillColor=#FAE5C7;strokeColor=#0F8B8D;fontColor=#143642;" vertex="1" parent="1">
          <mxGeometry x="70" y="390" width="190" height="40" as="geometry" />
        </mxCell>
        <mxCell id="iupRu0jb0FwVBz4ll3Uf-9" value="&lt;u&gt;Cod DP&lt;/u&gt;" style="ellipse;whiteSpace=wrap;html=1;labelBackgroundColor=none;fillColor=#FAE5C7;strokeColor=#0F8B8D;fontColor=#143642;" vertex="1" parent="1">
          <mxGeometry x="30" y="460" width="100" height="40" as="geometry" />
        </mxCell>
        <mxCell id="iupRu0jb0FwVBz4ll3Uf-13" value="" style="endArrow=none;html=1;rounded=0;exitX=0.63;exitY=0.025;exitDx=0;exitDy=0;exitPerimeter=0;labelBackgroundColor=none;strokeColor=#A8201A;fontColor=default;" edge="1" parent="1" source="iupRu0jb0FwVBz4ll3Uf-9" target="iupRu0jb0FwVBz4ll3Uf-8">
          <mxGeometry width="50" height="50" relative="1" as="geometry">
            <mxPoint x="89" y="420" as="sourcePoint" />
            <mxPoint x="80" y="390" as="targetPoint" />
          </mxGeometry>
        </mxCell>
        <mxCell id="iupRu0jb0FwVBz4ll3Uf-14" value="Nome" style="ellipse;whiteSpace=wrap;html=1;labelBackgroundColor=none;fillColor=#FAE5C7;strokeColor=#0F8B8D;fontColor=#143642;" vertex="1" parent="1">
          <mxGeometry x="180" y="460" width="100" height="40" as="geometry" />
        </mxCell>
        <mxCell id="iupRu0jb0FwVBz4ll3Uf-15" value="" style="endArrow=none;html=1;rounded=0;exitX=0.5;exitY=0;exitDx=0;exitDy=0;labelBackgroundColor=none;strokeColor=#A8201A;fontColor=default;" edge="1" parent="1" source="iupRu0jb0FwVBz4ll3Uf-14" target="iupRu0jb0FwVBz4ll3Uf-8">
          <mxGeometry width="50" height="50" relative="1" as="geometry">
            <mxPoint x="224.6" y="425" as="sourcePoint" />
            <mxPoint x="255.6" y="370" as="targetPoint" />
          </mxGeometry>
        </mxCell>
        <mxCell id="iupRu0jb0FwVBz4ll3Uf-16" value="Municipio" style="rounded=0;whiteSpace=wrap;html=1;labelBackgroundColor=none;fillColor=#FAE5C7;strokeColor=#0F8B8D;fontColor=#143642;" vertex="1" parent="1">
          <mxGeometry x="555" y="370" width="190" height="40" as="geometry" />
        </mxCell>
        <mxCell id="iupRu0jb0FwVBz4ll3Uf-17" value="Cod Ibge" style="ellipse;whiteSpace=wrap;html=1;fontStyle=4;labelBackgroundColor=none;fillColor=#FAE5C7;strokeColor=#0F8B8D;fontColor=#143642;" vertex="1" parent="1">
          <mxGeometry x="480" y="450" width="100" height="40" as="geometry" />
        </mxCell>
        <mxCell id="iupRu0jb0FwVBz4ll3Uf-18" value="" style="endArrow=none;html=1;rounded=0;exitX=0.5;exitY=0;exitDx=0;exitDy=0;entryX=0.074;entryY=0.975;entryDx=0;entryDy=0;entryPerimeter=0;labelBackgroundColor=none;strokeColor=#A8201A;fontColor=default;" edge="1" parent="1" source="iupRu0jb0FwVBz4ll3Uf-17" target="iupRu0jb0FwVBz4ll3Uf-16">
          <mxGeometry width="50" height="50" relative="1" as="geometry">
            <mxPoint x="540.71" y="420" as="sourcePoint" />
            <mxPoint x="479.71" y="370" as="targetPoint" />
          </mxGeometry>
        </mxCell>
        <mxCell id="iupRu0jb0FwVBz4ll3Uf-19" value="Região" style="ellipse;whiteSpace=wrap;html=1;labelBackgroundColor=none;fillColor=#FAE5C7;strokeColor=#0F8B8D;fontColor=#143642;" vertex="1" parent="1">
          <mxGeometry x="600" y="450" width="100" height="40" as="geometry" />
        </mxCell>
        <mxCell id="iupRu0jb0FwVBz4ll3Uf-20" value="" style="endArrow=none;html=1;rounded=0;exitX=0.5;exitY=0;exitDx=0;exitDy=0;entryX=0.5;entryY=1;entryDx=0;entryDy=0;labelBackgroundColor=none;strokeColor=#A8201A;fontColor=default;" edge="1" parent="1" source="iupRu0jb0FwVBz4ll3Uf-19" target="iupRu0jb0FwVBz4ll3Uf-16">
          <mxGeometry width="50" height="50" relative="1" as="geometry">
            <mxPoint x="655.94" y="400" as="sourcePoint" />
            <mxPoint x="639.94" y="359" as="targetPoint" />
          </mxGeometry>
        </mxCell>
        <mxCell id="iupRu0jb0FwVBz4ll3Uf-21" value="Municipio" style="ellipse;whiteSpace=wrap;html=1;labelBackgroundColor=none;fillColor=#FAE5C7;strokeColor=#0F8B8D;fontColor=#143642;" vertex="1" parent="1">
          <mxGeometry x="740" y="450" width="100" height="40" as="geometry" />
        </mxCell>
        <mxCell id="iupRu0jb0FwVBz4ll3Uf-22" value="" style="endArrow=none;html=1;rounded=0;exitX=0.37;exitY=0.075;exitDx=0;exitDy=0;exitPerimeter=0;labelBackgroundColor=none;strokeColor=#A8201A;fontColor=default;" edge="1" parent="1" source="iupRu0jb0FwVBz4ll3Uf-21" target="iupRu0jb0FwVBz4ll3Uf-16">
          <mxGeometry width="50" height="50" relative="1" as="geometry">
            <mxPoint x="753" y="406" as="sourcePoint" />
            <mxPoint x="740.02" y="360" as="targetPoint" />
          </mxGeometry>
        </mxCell>
        <mxCell id="iupRu0jb0FwVBz4ll3Uf-23" value="Ocorrencias" style="rounded=0;whiteSpace=wrap;html=1;labelBackgroundColor=none;fillColor=#FAE5C7;strokeColor=#0F8B8D;fontColor=#143642;" vertex="1" parent="1">
          <mxGeometry x="550" y="90" width="190" height="40" as="geometry" />
        </mxCell>
        <mxCell id="iupRu0jb0FwVBz4ll3Uf-24" value="Cod DP&lt;br&gt;" style="ellipse;whiteSpace=wrap;html=1;labelBackgroundColor=none;fillColor=#FAE5C7;strokeColor=#0F8B8D;fontColor=#143642;" vertex="1" parent="1">
          <mxGeometry x="480" y="180" width="100" height="40" as="geometry" />
        </mxCell>
        <mxCell id="iupRu0jb0FwVBz4ll3Uf-25" value="" style="endArrow=none;html=1;rounded=0;entryX=0.047;entryY=0.975;entryDx=0;entryDy=0;entryPerimeter=0;labelBackgroundColor=none;strokeColor=#A8201A;fontColor=default;" edge="1" parent="1" source="iupRu0jb0FwVBz4ll3Uf-24" target="iupRu0jb0FwVBz4ll3Uf-23">
          <mxGeometry width="50" height="50" relative="1" as="geometry">
            <mxPoint x="500" y="170" as="sourcePoint" />
            <mxPoint x="491" y="140" as="targetPoint" />
          </mxGeometry>
        </mxCell>
        <mxCell id="iupRu0jb0FwVBz4ll3Uf-26" value="Cod Ibge" style="ellipse;whiteSpace=wrap;html=1;fontStyle=4;labelBackgroundColor=none;fillColor=#FAE5C7;strokeColor=#0F8B8D;fontColor=#143642;" vertex="1" parent="1">
          <mxGeometry x="710" y="180" width="100" height="40" as="geometry" />
        </mxCell>
        <mxCell id="iupRu0jb0FwVBz4ll3Uf-29" value="" style="endArrow=none;html=1;rounded=0;exitX=0.5;exitY=0;exitDx=0;exitDy=0;entryX=1;entryY=1;entryDx=0;entryDy=0;labelBackgroundColor=none;strokeColor=#A8201A;fontColor=default;" edge="1" parent="1" source="iupRu0jb0FwVBz4ll3Uf-26" target="iupRu0jb0FwVBz4ll3Uf-23">
          <mxGeometry width="50" height="50" relative="1" as="geometry">
            <mxPoint x="627.97" y="170" as="sourcePoint" />
            <mxPoint x="631.97" y="139" as="targetPoint" />
          </mxGeometry>
        </mxCell>
        <mxCell id="iupRu0jb0FwVBz4ll3Uf-30" value="Qtde" style="ellipse;whiteSpace=wrap;html=1;labelBackgroundColor=none;fillColor=#FAE5C7;strokeColor=#0F8B8D;fontColor=#143642;" vertex="1" parent="1">
          <mxGeometry x="600" y="30" width="100" height="40" as="geometry" />
        </mxCell>
        <mxCell id="iupRu0jb0FwVBz4ll3Uf-31" value="" style="endArrow=none;html=1;rounded=0;entryX=0.5;entryY=1;entryDx=0;entryDy=0;labelBackgroundColor=none;strokeColor=#A8201A;fontColor=default;" edge="1" parent="1" source="iupRu0jb0FwVBz4ll3Uf-23" target="iupRu0jb0FwVBz4ll3Uf-30">
          <mxGeometry width="50" height="50" relative="1" as="geometry">
            <mxPoint x="652.5" y="110" as="sourcePoint" />
            <mxPoint x="627.5" y="60" as="targetPoint" />
          </mxGeometry>
        </mxCell>
        <mxCell id="iupRu0jb0FwVBz4ll3Uf-32" value="Ano&lt;br&gt;" style="ellipse;whiteSpace=wrap;html=1;labelBackgroundColor=none;fillColor=#FAE5C7;strokeColor=#0F8B8D;fontColor=#143642;" vertex="1" parent="1">
          <mxGeometry x="730" y="30" width="100" height="40" as="geometry" />
        </mxCell>
        <mxCell id="iupRu0jb0FwVBz4ll3Uf-33" value="" style="endArrow=none;html=1;rounded=0;entryX=0.28;entryY=0.975;entryDx=0;entryDy=0;exitX=1;exitY=0;exitDx=0;exitDy=0;entryPerimeter=0;labelBackgroundColor=none;strokeColor=#A8201A;fontColor=default;" edge="1" parent="1" source="iupRu0jb0FwVBz4ll3Uf-23" target="iupRu0jb0FwVBz4ll3Uf-32">
          <mxGeometry width="50" height="50" relative="1" as="geometry">
            <mxPoint x="741.75" y="90" as="sourcePoint" />
            <mxPoint x="758.75" y="70" as="targetPoint" />
          </mxGeometry>
        </mxCell>
        <mxCell id="iupRu0jb0FwVBz4ll3Uf-34" style="edgeStyle=orthogonalEdgeStyle;rounded=0;orthogonalLoop=1;jettySize=auto;html=1;exitX=0.5;exitY=1;exitDx=0;exitDy=0;labelBackgroundColor=none;strokeColor=#A8201A;fontColor=default;" edge="1" parent="1" source="iupRu0jb0FwVBz4ll3Uf-32" target="iupRu0jb0FwVBz4ll3Uf-32">
          <mxGeometry relative="1" as="geometry" />
        </mxCell>
        <mxCell id="iupRu0jb0FwVBz4ll3Uf-35" value="Mês" style="ellipse;whiteSpace=wrap;html=1;labelBackgroundColor=none;fillColor=#FAE5C7;strokeColor=#0F8B8D;fontColor=#143642;" vertex="1" parent="1">
          <mxGeometry x="790" y="110" width="100" height="40" as="geometry" />
        </mxCell>
        <mxCell id="iupRu0jb0FwVBz4ll3Uf-36" value="" style="endArrow=none;html=1;rounded=0;exitX=1;exitY=0.75;exitDx=0;exitDy=0;labelBackgroundColor=none;strokeColor=#A8201A;fontColor=default;" edge="1" parent="1" source="iupRu0jb0FwVBz4ll3Uf-23" target="iupRu0jb0FwVBz4ll3Uf-35">
          <mxGeometry width="50" height="50" relative="1" as="geometry">
            <mxPoint x="710" y="120" as="sourcePoint" />
            <mxPoint x="728" y="109" as="targetPoint" />
          </mxGeometry>
        </mxCell>
        <mxCell id="iupRu0jb0FwVBz4ll3Uf-37" value="Ocorrencia" style="ellipse;whiteSpace=wrap;html=1;labelBackgroundColor=none;fillColor=#FAE5C7;strokeColor=#0F8B8D;fontColor=#143642;" vertex="1" parent="1">
          <mxGeometry x="840" y="170" width="100" height="40" as="geometry" />
        </mxCell>
        <mxCell id="iupRu0jb0FwVBz4ll3Uf-38" value="" style="endArrow=none;html=1;rounded=0;exitX=0;exitY=0;exitDx=0;exitDy=0;entryX=1;entryY=0.75;entryDx=0;entryDy=0;labelBackgroundColor=none;strokeColor=#A8201A;fontColor=default;" edge="1" parent="1" source="iupRu0jb0FwVBz4ll3Uf-37" target="iupRu0jb0FwVBz4ll3Uf-23">
          <mxGeometry width="50" height="50" relative="1" as="geometry">
            <mxPoint x="725" y="190" as="sourcePoint" />
            <mxPoint x="700" y="140" as="targetPoint" />
          </mxGeometry>
        </mxCell>
        <mxCell id="iupRu0jb0FwVBz4ll3Uf-39" value="COORDENA" style="rhombus;whiteSpace=wrap;html=1;labelBackgroundColor=none;fillColor=#FAE5C7;strokeColor=#0F8B8D;fontColor=#143642;" vertex="1" parent="1">
          <mxGeometry x="90" y="260" width="150" height="80" as="geometry" />
        </mxCell>
        <mxCell id="iupRu0jb0FwVBz4ll3Uf-40" value="" style="endArrow=none;html=1;rounded=0;exitX=0.5;exitY=0;exitDx=0;exitDy=0;entryX=0.5;entryY=1;entryDx=0;entryDy=0;labelBackgroundColor=none;strokeColor=#A8201A;fontColor=default;" edge="1" parent="1" source="iupRu0jb0FwVBz4ll3Uf-8" target="iupRu0jb0FwVBz4ll3Uf-39">
          <mxGeometry width="50" height="50" relative="1" as="geometry">
            <mxPoint x="186.43" y="340" as="sourcePoint" />
            <mxPoint x="140.43" y="290" as="targetPoint" />
          </mxGeometry>
        </mxCell>
        <mxCell id="iupRu0jb0FwVBz4ll3Uf-41" value="" style="endArrow=none;html=1;rounded=0;exitX=0.5;exitY=0;exitDx=0;exitDy=0;labelBackgroundColor=none;strokeColor=#A8201A;fontColor=default;" edge="1" parent="1" source="iupRu0jb0FwVBz4ll3Uf-39" target="iupRu0jb0FwVBz4ll3Uf-3">
          <mxGeometry width="50" height="50" relative="1" as="geometry">
            <mxPoint x="160" y="240" as="sourcePoint" />
            <mxPoint x="154.5" y="220" as="targetPoint" />
          </mxGeometry>
        </mxCell>
        <mxCell id="iupRu0jb0FwVBz4ll3Uf-44" value="1" style="text;html=1;align=center;verticalAlign=middle;resizable=0;points=[];autosize=1;strokeColor=none;fillColor=none;labelBackgroundColor=none;fontColor=#143642;" vertex="1" parent="1">
          <mxGeometry x="180" y="340" width="30" height="30" as="geometry" />
        </mxCell>
        <mxCell id="iupRu0jb0FwVBz4ll3Uf-46" value="REGISTRA" style="rhombus;whiteSpace=wrap;html=1;labelBackgroundColor=none;fillColor=#FAE5C7;strokeColor=#0F8B8D;fontColor=#143642;" vertex="1" parent="1">
          <mxGeometry x="320" y="-10" width="150" height="80" as="geometry" />
        </mxCell>
        <mxCell id="iupRu0jb0FwVBz4ll3Uf-47" value="" style="endArrow=none;html=1;rounded=0;entryX=1;entryY=0.75;entryDx=0;entryDy=0;labelBackgroundColor=none;strokeColor=#A8201A;fontColor=default;" edge="1" parent="1" source="iupRu0jb0FwVBz4ll3Uf-46" target="iupRu0jb0FwVBz4ll3Uf-1">
          <mxGeometry width="50" height="50" relative="1" as="geometry">
            <mxPoint x="310.36" y="146" as="sourcePoint" />
            <mxPoint x="246.36" y="110" as="targetPoint" />
          </mxGeometry>
        </mxCell>
        <mxCell id="iupRu0jb0FwVBz4ll3Uf-48" value="" style="endArrow=none;html=1;rounded=0;exitX=0;exitY=0.75;exitDx=0;exitDy=0;labelBackgroundColor=none;strokeColor=#A8201A;fontColor=default;" edge="1" parent="1" source="iupRu0jb0FwVBz4ll3Uf-23" target="iupRu0jb0FwVBz4ll3Uf-46">
          <mxGeometry width="50" height="50" relative="1" as="geometry">
            <mxPoint x="509.85" y="107.56" as="sourcePoint" />
            <mxPoint x="460" y="110" as="targetPoint" />
          </mxGeometry>
        </mxCell>
        <mxCell id="iupRu0jb0FwVBz4ll3Uf-49" value="1" style="text;html=1;align=center;verticalAlign=middle;resizable=0;points=[];autosize=1;strokeColor=none;fillColor=none;labelBackgroundColor=none;fontColor=#143642;" vertex="1" parent="1">
          <mxGeometry x="180" y="230" width="30" height="30" as="geometry" />
        </mxCell>
        <mxCell id="iupRu0jb0FwVBz4ll3Uf-50" value="1" style="text;html=1;align=center;verticalAlign=middle;resizable=0;points=[];autosize=1;strokeColor=none;fillColor=none;labelBackgroundColor=none;fontColor=#143642;" vertex="1" parent="1">
          <mxGeometry x="275" y="70" width="30" height="30" as="geometry" />
        </mxCell>
        <mxCell id="iupRu0jb0FwVBz4ll3Uf-51" value="N" style="text;html=1;align=center;verticalAlign=middle;resizable=0;points=[];autosize=1;strokeColor=none;fillColor=none;labelBackgroundColor=none;fontColor=#143642;" vertex="1" parent="1">
          <mxGeometry x="495" y="60" width="30" height="30" as="geometry" />
        </mxCell>
        <mxCell id="iupRu0jb0FwVBz4ll3Uf-52" value="POSSUI REGISTROS" style="rhombus;whiteSpace=wrap;html=1;labelBackgroundColor=none;fillColor=#FAE5C7;strokeColor=#0F8B8D;fontColor=#143642;" vertex="1" parent="1">
          <mxGeometry x="580" y="230" width="150" height="80" as="geometry" />
        </mxCell>
        <mxCell id="iupRu0jb0FwVBz4ll3Uf-53" value="" style="endArrow=none;html=1;rounded=0;entryX=0.5;entryY=1;entryDx=0;entryDy=0;labelBackgroundColor=none;strokeColor=#A8201A;fontColor=default;" edge="1" parent="1" source="iupRu0jb0FwVBz4ll3Uf-16" target="iupRu0jb0FwVBz4ll3Uf-52">
          <mxGeometry width="50" height="50" relative="1" as="geometry">
            <mxPoint x="730" y="370" as="sourcePoint" />
            <mxPoint x="643" y="327" as="targetPoint" />
          </mxGeometry>
        </mxCell>
        <mxCell id="iupRu0jb0FwVBz4ll3Uf-54" value="1" style="text;html=1;align=center;verticalAlign=middle;resizable=0;points=[];autosize=1;strokeColor=none;fillColor=none;labelBackgroundColor=none;fontColor=#143642;" vertex="1" parent="1">
          <mxGeometry x="610" y="320" width="30" height="30" as="geometry" />
        </mxCell>
        <mxCell id="iupRu0jb0FwVBz4ll3Uf-55" value="N" style="text;html=1;align=center;verticalAlign=middle;resizable=0;points=[];autosize=1;strokeColor=none;fillColor=none;labelBackgroundColor=none;fontColor=#143642;" vertex="1" parent="1">
          <mxGeometry x="610" y="170" width="30" height="30" as="geometry" />
        </mxCell>
        <mxCell id="iupRu0jb0FwVBz4ll3Uf-56" value="" style="endArrow=none;html=1;rounded=0;exitX=0.5;exitY=0;exitDx=0;exitDy=0;labelBackgroundColor=none;strokeColor=#A8201A;fontColor=default;" edge="1" parent="1" source="iupRu0jb0FwVBz4ll3Uf-52" target="iupRu0jb0FwVBz4ll3Uf-23">
          <mxGeometry width="50" height="50" relative="1" as="geometry">
            <mxPoint x="651.23" y="200" as="sourcePoint" />
            <mxPoint x="649.23" y="119" as="targetPoint" />
          </mxGeometry>
        </mxCell>
      </root>
    </mxGraphModel>
  </diagram>
</mxfile>
